<?xml version="1.0" encoding="UTF-8"?>
<svg id="Layer_9" data-name="Layer 9" xmlns="http://www.w3.org/2000/svg" xmlns:xlink="http://www.w3.org/1999/xlink" viewBox="0 0 1796.55 975.05">
  <defs>
    <style>
      .cls-1 {
        fill: url(#radial-gradient-2);
      }

      .cls-1, .cls-2, .cls-3 {
        stroke-width: 0px;
      }

      .cls-4 {
        fill: #fff;
        stroke: url(#radial-gradient);
        stroke-miterlimit: 10;
        stroke-width: 10px;
      }

      .cls-2 {
        fill: url(#radial-gradient-3);
      }

      .cls-3 {
        fill: url(#radial-gradient-4);
      }
    </style>
    <radialGradient id="radial-gradient" cx="398.39" cy="213.69" fx="398.39" fy="213.69" r="172.05" gradientUnits="userSpaceOnUse">
      <stop offset="0" stop-color="#fff"/>
      <stop offset=".8" stop-color="#ff862e"/>
    </radialGradient>
    <radialGradient id="radial-gradient-2" cx="397.37" cy="152.41" fx="397.37" fy="152.41" r="96.18" xlink:href="#radial-gradient"/>
    <radialGradient id="radial-gradient-3" r="96.18" xlink:href="#radial-gradient"/>
    <radialGradient id="radial-gradient-4" cx="399.41" cy="271.9" fx="399.41" fy="271.9" r="96.18" xlink:href="#radial-gradient"/>
  </defs>
  <circle class="cls-4" cx="398.39" cy="213.69" r="167.05"/>
  <path class="cls-1" d="m506.44,171.96h-218.55c-14.88,1.3-25.94-10.72-25.06-21.36.8-9.74,11.67-19.18,25.06-17.7h218.55c13.76-1.68,24.9,8.23,25.49,18.21.63,10.63-10.65,22.42-25.49,20.85Z"/>
  <path class="cls-2" d="m507.46,233.24h-218.55c-14.88,1.3-25.94-10.72-25.06-21.36.8-9.74,11.67-19.18,25.06-17.7h218.55c13.76-1.68,24.9,8.23,25.49,18.21.63,10.63-10.65,22.42-25.49,20.85Z"/>
  <path class="cls-3" d="m508.48,291.45h-218.55c-14.88,1.3-25.94-10.72-25.06-21.36.8-9.74,11.67-19.18,25.06-17.7h218.55c13.76-1.68,24.9,8.23,25.49,18.21.63,10.63-10.65,22.42-25.49,20.85Z"/>
</svg>